<?xml version="1.0" standalone="no"?>
<!DOCTYPE svg PUBLIC "-//W3C//DTD SVG 20010904//EN"
 "http://www.w3.org/TR/2001/REC-SVG-20010904/DTD/svg10.dtd">
<svg version="1.0" xmlns="http://www.w3.org/2000/svg"
 width="2000.000000pt" height="2000.000000pt" viewBox="0 0 2000.000000 2000.000000"
 preserveAspectRatio="xMidYMid meet">

<g transform="translate(0.000000,2000.000000) scale(0.100000,-0.100000)"
fill="#000000" stroke="none">
<path d="M1780 12000 l0 -900 115 0 115 0 0 -620 0 -620 -115 0 -115 0 0 -900
0 -900 1058 -2 1057 -3 5 -330 c6 -360 7 -369 69 -459 41 -59 83 -93 161 -130
l65 -31 5805 0 5805 0 65 31 c78 37 120 71 161 130 62 90 63 99 69 459 l5 330
1058 3 1057 2 0 900 0 900 -115 0 -115 0 0 620 0 620 115 0 115 0 0 900 0 900
-3457 0 -3458 0 -50 -24 c-38 -18 -114 -88 -310 -285 l-260 -261 -275 274
c-228 227 -282 276 -315 285 -29 8 -1209 11 -4177 11 l-4138 0 0 -900z m2008
-2 l-3 -443 -117 -3 -118 -3 0 -1074 0 -1075 120 0 120 0 0 -445 0 -445 -780
0 -780 0 0 445 0 445 120 0 120 0 0 1075 0 1074 -117 3 -118 3 -3 443 -2 442
780 0 780 0 -2 -442z m3582 -118 l0 -560 -440 0 -440 0 0 115 0 115 -115 0
-115 0 0 -1075 0 -1075 115 0 115 0 0 -445 0 -445 -780 0 -780 0 0 445 0 445
120 0 120 0 0 1075 0 1075 -120 0 -120 0 0 -115 0 -115 -440 0 -440 0 0 560 0
560 1660 0 1660 0 0 -560z m2873 242 l317 -317 -2 -380 -3 -380 -542 -3 -543
-2 0 197 0 197 -57 58 -57 58 -290 0 -290 0 -63 -62 -63 -62 0 -195 0 -195 57
-58 57 -58 578 0 577 0 320 -322 320 -323 1 -565 0 -565 -317 -317 -318 -318
-865 0 -865 0 -313 313 -312 312 0 383 0 382 538 -2 537 -3 3 -185 2 -185 62
-62 62 -63 291 0 291 0 57 58 57 58 0 195 0 195 -58 57 -58 57 -574 0 -575 0
-317 317 -318 318 0 580 0 580 312 312 313 313 865 0 865 0 318 -318z m3249 1
l318 -318 0 -1330 0 -1330 -317 -317 -318 -318 -865 0 -865 0 -313 313 -312
312 0 1340 0 1340 312 312 313 313 865 0 865 0 317 -317z m2388 -529 c278
-465 520 -868 537 -897 l33 -52 0 452 0 452 -117 3 -118 3 -3 443 -2 442 780
0 780 0 -2 -442 -3 -443 -117 -3 -118 -3 0 -1074 0 -1075 120 0 120 0 0 -445
0 -445 -653 0 -652 0 -445 742 c-245 408 -482 803 -527 877 l-83 136 0 -432 0
-432 118 -3 117 -3 0 -440 0 -440 -777 -3 -778 -2 0 445 0 445 120 0 120 0 0
1075 0 1074 -117 3 -118 3 -3 443 -2 442 642 -1 643 0 505 -845z m-4707 -3588
c35 -14 97 -78 97 -99 0 -13 -60 -47 -82 -47 -6 0 -21 11 -34 25 -40 43 -124
27 -124 -24 0 -25 35 -54 110 -91 106 -52 140 -95 140 -172 0 -60 -35 -116
-90 -146 -60 -32 -160 -29 -212 7 -32 22 -78 78 -78 94 0 4 23 18 50 32 28 14
50 21 50 17 0 -5 12 -21 26 -36 48 -47 134 -29 134 28 0 30 -30 55 -118 101
-40 21 -82 49 -92 63 -44 55 -46 141 -5 200 39 55 154 79 228 48z m-6413 -185
c0 -108 5 -201 11 -219 14 -41 49 -62 104 -62 104 0 115 28 115 280 l0 190 60
0 60 0 0 -191 c0 -213 -8 -260 -53 -314 -42 -52 -97 -75 -180 -75 -106 0 -167
33 -210 115 -20 37 -22 58 -25 253 l-4 212 61 0 61 0 0 -189z m1270 -1 l115
-184 3 187 2 187 60 0 60 0 0 -285 0 -285 -59 0 -59 0 -119 187 -118 187 -3
-187 -2 -187 -60 0 -60 0 0 285 0 286 62 -3 62 -3 116 -185z m1050 -95 l0
-285 -60 0 -60 0 0 285 0 285 60 0 60 0 0 -285z m835 65 l72 -215 72 218 73
217 64 0 c35 0 64 -1 64 -2 0 -2 -47 -129 -103 -283 l-103 -280 -65 -3 -65 -3
-102 278 c-56 153 -102 282 -102 286 0 4 28 7 62 5 l61 -3 72 -215z m1283 168
l-3 -53 -87 -3 -88 -3 0 -59 0 -60 75 0 75 0 0 -55 0 -55 -75 0 -75 0 0 -65 0
-65 95 0 95 0 0 -50 0 -50 -155 0 -155 0 0 285 0 285 151 0 150 0 -3 -52z
m952 30 c54 -28 80 -62 87 -116 8 -63 -5 -109 -44 -153 -25 -27 -33 -43 -26
-52 6 -6 36 -60 67 -119 l57 -108 -66 0 -66 0 -52 109 c-50 106 -53 110 -84
110 l-33 1 0 -110 0 -110 -60 0 -60 0 0 285 0 285 118 0 c102 0 123 -3 162
-22z m1910 -263 l0 -285 -60 0 -60 0 0 285 0 285 60 0 60 0 0 -285z m960 269
c73 -21 150 -99 170 -169 33 -116 8 -233 -63 -303 -65 -64 -124 -82 -262 -82
l-115 0 0 285 0 285 108 0 c70 0 127 -6 162 -16z m1222 -264 c53 -151 98 -278
98 -282 0 -5 -26 -8 -58 -8 l-58 0 -23 70 -22 70 -99 0 -99 0 -22 -70 -23 -70
-58 0 c-32 0 -58 2 -58 5 0 4 170 489 191 543 8 21 14 23 71 20 l62 -3 98
-275z m1017 263 c62 -20 124 -71 154 -127 18 -34 22 -57 22 -141 0 -117 -17
-159 -87 -219 -58 -50 -119 -66 -255 -66 l-113 0 0 285 0 285 114 0 c78 0 130
-5 165 -17z"/>
<path d="M11962 11487 l-62 -63 0 -950 0 -950 63 -62 63 -62 289 0 289 0 58
57 58 57 0 961 0 961 -58 57 -58 57 -290 0 -290 0 -62 -63z"/>
<path d="M9990 7835 l0 -75 36 0 c36 0 73 15 86 34 4 6 8 26 8 44 0 47 -30 72
-85 72 l-45 0 0 -75z"/>
<path d="M12870 7724 l0 -186 55 4 c59 5 94 24 129 72 30 40 30 182 0 223 -27
37 -99 73 -146 73 l-38 0 0 -186z"/>
<path d="M14047 7782 c-15 -49 -27 -92 -27 -95 0 -4 27 -7 60 -7 40 0 60 4 60
12 0 20 -54 178 -61 178 -3 0 -18 -40 -32 -88z"/>
<path d="M15100 7724 l0 -187 62 6 c73 6 105 27 136 87 48 95 17 215 -68 258
-25 12 -63 22 -87 22 l-43 0 0 -186z"/>
</g>
</svg>
